<svg height="512pt" viewBox="0 0 512 512.00633" width="512pt" xmlns="http://www.w3.org/2000/svg"><path d="m391.789062 289.851562-194.535156 74.34375s-43.695312 16.703126-79.550781-1.269531c-4.199219-1.984375-9.035156-2.121093-13.339844-.378906l-24.886719 9.542969c-8.953124 3.398437-18.964843-1.078125-22.40625-10.011719l-49.585937-129.71875c-3.398437-8.953125 1.078125-18.96875 10.011719-22.414063l2.996094-1.148437c13-4.949219 23.449218-14.941406 28.976562-27.707031 9.257812-21.46875 26.363281-55.703125 48.59375-76.28125 34.339844-31.707032 78.972656-69.371094 88.949219-91.785156 9.980469-22.414063 32.421875-12.390626 38.617187 3.816406 6.199219 16.210937-14.074218 44.582031-32.195312 70.09375-5.851563 8.148437-10.75 16.941406-14.59375 26.207031-2.210938 5.46875-1.480469 11.683594 1.9375 16.492187 3.417968 4.804688 9.050781 7.535157 14.941406 7.242188 11.175781-.730469 22.160156-3.265625 32.523438-7.507812l154.007812-58.886719c10.285156-3.992188 21.96875-.988281 29.054688 7.472656 1.972656 2.210937 3.519531 4.773437 4.5625 7.546875 5.132812 13.429688-1.59375 28.476562-15.019532 33.609375l32.421875-12.363281c10.285157-3.992188 21.96875-.988282 29.050781 7.472656 1.976563 2.210938 3.523438 4.769531 4.566407 7.546875 5.109375 13.421875-1.613281 28.441406-15.023438 33.574219l-32.417969 12.410156c6.445313-2.46875 13.609376-2.265625 19.90625.566406 3.554688 1.554688 6.691407 3.9375 9.144532 6.941406 1.972656 2.210938 3.515625 4.769532 4.558594 7.542969 2.464843 6.449219 2.269531 13.613281-.546876 19.917969-2.816406 6.304688-8.023437 11.234375-14.476562 13.699219l-63.460938 24.296875c6.449219-2.457032 13.609376-2.253906 19.90625.566406 3.554688 1.558594 6.6875 3.9375 9.148438 6.941406 2.371094 2.714844 4.128906 5.910156 5.164062 9.363282 3.546876 13.535156-3.832031 27.539062-17 32.265624zm0 0" fill="#e8c29c"/><path d="m415.867188 85.5c-1.042969-2.773438-2.589844-5.335938-4.5625-7.546875-7.085938-8.460937-18.769532-11.464844-29.054688-7.472656l-154.015625 58.886719c-10.367187 4.242187-21.351563 6.777343-32.527344 7.507812-4.242187.160156-8.398437-1.21875-11.703125-3.878906-.867187 5.160156.65625 10.429687 4.136719 14.335937 3.476563 3.902344 8.539063 6.019531 13.765625 5.753907 11.175781-.730469 22.160156-3.265626 32.523438-7.507813l154.007812-58.886719c10.289062-3.992187 21.976562-.988281 29.0625 7.46875-.011719-2.960937-.5625-5.894531-1.632812-8.660156zm0 0" fill="#ae9275"/><path d="m57.277344 241.175781-3.097656-8.105469c-1.078126-2.9375-3.652344-5.070312-6.738282-5.578124-3.089844-.507813-6.210937.683593-8.171875 3.125-1.960937 2.4375-2.457031 5.742187-1.300781 8.648437l3.097656 8.105469c1.078125 2.9375 3.652344 5.070312 6.738282 5.578125 3.089843.507812 6.210937-.683594 8.171874-3.121094 1.960938-2.441406 2.460938-5.746094 1.300782-8.652344zm0 0" fill="#fee7ce"/><path d="m91.398438 330.339844-21.695313-56.742188c-1.105469-2.898437-3.675781-4.980468-6.738281-5.46875-3.0625-.488281-6.152344.695313-8.105469 3.101563s-2.472656 5.675781-1.363281 8.570312l21.691406 56.738281c1.757812 4.40625 6.730469 6.585938 11.160156 4.894532 4.433594-1.695313 6.683594-6.636719 5.050782-11.09375zm0 0" fill="#fee7ce"/><path d="m462.320312 114.191406c-7.082031-8.457031-18.765624-11.464844-29.050781-7.472656l-170.21875 65.109375c-2.9375 1.078125-5.070312 3.652344-5.578125 6.742187-.507812 3.085938.683594 6.207032 3.121094 8.167969 2.441406 1.964844 5.746094 2.460938 8.652344 1.300781l170.21875-65.082031c10.289062-3.992187 21.972656-.988281 29.0625 7.46875-.054688-5.972656-2.257813-11.726562-6.207032-16.207031zm0 0" fill="#ae9275"/><path d="m448.496094 175.222656c-2.453125-3.003906-5.589844-5.382812-9.144532-6.941406-6.296874-2.832031-13.460937-3.035156-19.90625-.566406l-137.796874 52.710937c-2.941407 1.078125-5.070313 3.652344-5.578126 6.738281-.511718 3.089844.683594 6.210938 3.121094 8.171876 2.4375 1.960937 5.742188 2.457031 8.652344 1.300781l137.796875-52.65625c10.285156-3.992188 21.96875-.988281 29.054687 7.46875-.050781-5.972657-2.253906-11.726563-6.199218-16.207031zm0 0" fill="#ae9275"/><path d="m408.179688 255.667969c-1.039063-2.777344-2.585938-5.335938-4.554688-7.550781-2.460938-3-5.59375-5.378907-9.148438-6.941407-6.296874-2.820312-13.457031-3.023437-19.90625-.5625l-82.441406 31.515625c-4.476562 1.714844-6.71875 6.734375-5.007812 11.210938 1.714844 4.480468 6.734375 6.722656 11.214844 5.007812l82.4375-31.527344c10.285156-3.988281 21.96875-.980468 29.054687 7.472657-.011719-2.953125-.570313-5.875-1.648437-8.625zm0 0" fill="#ae9275"/><g fill="#4482c3"><path d="m491.894531 86.785156c-4.273437-.011718-7.902343-3.136718-8.550781-7.359375-.648438-4.226562 1.875-8.292969 5.949219-9.589843l11.429687-3.625c4.488282-1.207032 9.132813 1.339843 10.53125 5.773437 1.394532 4.4375-.953125 9.183594-5.324218 10.765625l-11.429688 3.621094c-.839844.269531-1.71875.410156-2.605469.414062zm0 0"/><path d="m475.375 52.636719c-3.417969 0-6.515625-2.007813-7.914062-5.128907-1.398438-3.117187-.832032-6.765624 1.4375-9.320312l7.8125-8.753906c2.0625-2.3125 5.207031-3.347656 8.242187-2.71875 3.035156.632812 5.503906 2.835937 6.472656 5.78125.96875 2.945312.296875 6.183594-1.769531 8.496094l-7.808594 8.757812c-1.648437 1.839844-4.003906 2.890625-6.472656 2.886719zm0 0"/><path d="m438.128906 42.066406c-.527344.003906-1.054687-.046875-1.570312-.144531-4.699219-.878906-7.804688-5.390625-6.945313-10.09375l2.109375-11.542969c.859375-4.714844 5.382813-7.839844 10.097656-6.980468 4.714844.859374 7.839844 5.382812 6.980469 10.097656l-2.109375 11.542968c-.75 4.132813-4.359375 7.136719-8.5625 7.121094zm0 0"/><path d="m503.324219 459.375c-.882813-.003906-1.761719-.140625-2.601563-.410156l-11.429687-3.617188c-4.4375-1.539062-6.84375-6.324218-5.433594-10.804687 1.40625-4.476563 6.121094-7.023438 10.640625-5.742188l11.429688 3.617188c4.085937 1.285156 6.625 5.359375 5.976562 9.59375-.652344 4.238281-4.296875 7.363281-8.582031 7.363281zm0 0"/><path d="m483.199219 498.640625c-2.472657.003906-4.832031-1.050781-6.480469-2.898437l-7.808594-8.753907c-2.066406-2.3125-2.742187-5.550781-1.769531-8.496093.96875-2.945313 3.4375-5.148438 6.472656-5.78125 3.035157-.628907 6.179688.40625 8.242188 2.71875l7.8125 8.753906c2.273437 2.550781 2.84375 6.203125 1.445312 9.324218-1.394531 3.121094-4.492187 5.132813-7.914062 5.132813zm0 0"/><path d="m440.21875 512.007812c-4.1875-.003906-7.777344-2.996093-8.53125-7.117187l-2.125-11.550781c-.863281-4.714844 2.261719-9.238282 6.976562-10.101563 4.714844-.863281 9.238282 2.261719 10.101563 6.976563l2.109375 11.550781c.859375 4.703125-2.242188 9.214844-6.941406 10.09375-.523438.101563-1.058594.148437-1.589844.148437zm0 0"/></g><path d="m338.445312 503.328125h-208.273437s-46.773437 0-73.847656-29.589844c-3.214844-3.351562-7.683594-5.210937-12.324219-5.121093h-26.640625c-9.574219-.03125-17.328125-7.785157-17.35546875-17.355469v-138.847657c.02734375-9.574218 7.78124975-17.328124 17.35546875-17.355468h3.210937c13.914063.015625 27.242188-5.585938 36.96875-15.535156 16.3125-16.75 44.515626-42.609376 72.632813-53.890626 43.390625-17.355468 104.136719-44.882812 121.492187-62.238281 17.355469-17.355469 34.710938 0 34.710938 17.355469s-34.710938 44.882812-60.746094 62.238281c-8.375 5.523438-16.089844 11.988281-22.996094 19.265625-4.015624 4.320313-5.550781 10.386719-4.078124 16.097656 1.476562 5.710938 5.761718 10.273438 11.367187 12.105469 10.703125 3.304688 21.867187 4.859375 33.0625 4.601563h164.882813c11.03125-.054688 20.875 6.925781 24.472656 17.355468 1.050781 2.769532 1.578125 5.710938 1.5625 8.675782 0 14.378906-11.65625 26.035156-26.035156 26.035156h34.710937c11.035156-.054688 20.875 6.925781 24.472656 17.355469 1.050781 2.773437 1.582031 5.714843 1.5625 8.679687 0 14.375-11.65625 26.03125-26.035156 26.03125h-34.710937c6.902343 0 13.523437 2.75 18.398437 7.636719 2.761719 2.71875 4.839844 6.046875 6.074219 9.71875 1.050781 2.773437 1.578125 5.714844 1.5625 8.679687 0 14.378907-11.65625 26.035157-26.035156 26.035157h-67.949219c6.90625 0 13.523437 2.746093 18.398437 7.636719 2.761719 2.714843 4.84375 6.046874 6.074219 9.71875 1.246094 3.382812 1.746094 6.992187 1.476563 10.585937-1.488282 13.941406-13.40625 24.425781-27.421876 24.125zm0 0" fill="#fdd7ad"/><path d="m433.902344 321.089844c.015625-2.964844-.511719-5.90625-1.5625-8.675782-3.597656-10.429687-13.441406-17.410156-24.472656-17.355468h-164.882813c-11.195313.257812-22.359375-1.296875-33.0625-4.601563-4.019531-1.367187-7.410156-4.140625-9.542969-7.808593-2.652344 4.507812-3.113281 9.976562-1.257812 14.867187 1.855468 4.890625 5.828125 8.679687 10.800781 10.296875 10.703125 3.304688 21.867187 4.859375 33.0625 4.601562h164.882813c11.03125-.054687 20.875 6.925782 24.472656 17.355469 1.050781-2.773437 1.578125-5.714843 1.5625-8.679687zm0 0" fill="#cbb292"/><path d="m208.273438 468.617188c0-4.792969-3.882813-8.679688-8.675782-8.679688h-52.070312c-4.792969 0-8.675782 3.886719-8.675782 8.679688 0 4.792968 3.882813 8.675781 8.675782 8.675781h52.070312c4.792969 0 8.675782-3.882813 8.675782-8.675781zm0 0" fill="#fee7ce"/><path d="m121.375 468.832031c-.078125-4.675781-3.695312-8.527343-8.359375-8.894531-4.40625-.648438-8.445313-2.820312-11.417969-6.132812-2.179687-2.257813-5.40625-3.164063-8.441406-2.367188-3.035156.792969-5.402344 3.164062-6.195312 6.195312-.796876 3.035157.109374 6.261719 2.363281 8.441407 6.113281 6.601562 14.515625 10.617187 23.492187 11.21875 4.683594-.007813 8.496094-3.773438 8.558594-8.460938zm0 0" fill="#fee7ce"/><path d="m43.394531 338.445312v-8.675781c0-4.792969-3.886719-8.679687-8.679687-8.679687-4.792969 0-8.679688 3.886718-8.679688 8.679687v8.675781c0 4.792969 3.886719 8.679688 8.679688 8.679688 4.792968 0 8.679687-3.886719 8.679687-8.679688zm0 0" fill="#fee7ce"/><path d="m43.394531 433.90625v-60.746094c0-4.792968-3.886719-8.679687-8.679687-8.679687-4.792969 0-8.679688 3.886719-8.679688 8.679687v60.746094c0 4.789062 3.886719 8.675781 8.679688 8.675781 4.792968 0 8.679687-3.886719 8.679687-8.675781zm0 0" fill="#fee7ce"/><path d="m467.050781 364.480469c-3.597656-10.429688-13.4375-17.410157-24.472656-17.355469h-182.234375c-4.792969 0-8.679688 3.886719-8.679688 8.679688 0 4.789062 3.886719 8.675781 8.679688 8.675781h182.234375c11.035156-.054688 20.875 6.925781 24.472656 17.355469 2.082031-5.597657 2.082031-11.757813 0-17.355469zm0 0" fill="#cbb292"/><path d="m432.339844 416.546875c-1.234375-3.671875-3.3125-7-6.074219-9.71875-4.875-4.886719-11.496094-7.636719-18.398437-7.636719h-147.523438c-4.792969 0-8.679688 3.886719-8.679688 8.679688 0 4.792968 3.886719 8.675781 8.679688 8.675781h147.523438c11.03125-.050781 20.875 6.929687 24.472656 17.359375 2.082031-5.601562 2.082031-11.761719 0-17.359375zm0 0" fill="#cbb292"/><path d="m365.953125 477.292969c.019531-2.960938-.511719-5.90625-1.5625-8.675781-1.230469-3.671876-3.3125-7.003907-6.074219-9.71875-4.875-4.890626-11.492187-7.636719-18.398437-7.636719h-88.253907c-4.792968 0-8.679687 3.882812-8.679687 8.675781s3.886719 8.679688 8.679687 8.679688h88.253907c11.035156-.054688 20.875 6.925781 24.472656 17.355468 1.050781-2.773437 1.582031-5.714844 1.5625-8.679687zm0 0" fill="#cbb292"/></svg>