<svg id="icons" enable-background="new 0 0 64 64" height="512" viewBox="0 0 64 64" width="512" xmlns="http://www.w3.org/2000/svg"><path d="m32 0c-12.683 0-23 10.317-23 23v40c0 .553.447 1 1 1h5c.553 0 1-.447 1-1h32c0 .553.447 1 1 1h5c.553 0 1-.447 1-1v-40c0-12.683-10.317-23-23-23zm-16 61v-38c0-8.822 7.178-16 16-16s16 7.178 16 16v38zm37 1h-3v-39c0-9.925-8.075-18-18-18s-18 8.075-18 18v39h-3v-39c0-11.579 9.421-21 21-21s21 9.421 21 21z"/><path d="m20 24h24c.553 0 1-.447 1-1 0-7.168-5.832-13-13-13s-13 5.832-13 13c0 .553.447 1 1 1zm12-5c-1.858 0-3.411 1.279-3.858 3h-4.072c.495-3.939 3.858-7 7.931-7s7.436 3.061 7.931 7h-4.072c-.449-1.721-2.002-3-3.86-3zm1.722 3h-3.443c.347-.595.985-1 1.722-1s1.374.405 1.721 1zm-1.722-10c5.728 0 10.441 4.402 10.949 10h-1c-.504-5.046-4.773-9-9.949-9s-9.445 3.954-9.949 9h-1c.508-5.598 5.221-10 10.949-10z"/><path d="m20 29h10c.553 0 1-.447 1-1s-.447-1-1-1h-10c-.553 0-1 .447-1 1s.447 1 1 1z"/><path d="m44 27h-10c-.553 0-1 .447-1 1s.447 1 1 1h10c.553 0 1-.447 1-1s-.447-1-1-1z"/><path d="m20 32h10c.553 0 1-.447 1-1s-.447-1-1-1h-10c-.553 0-1 .447-1 1s.447 1 1 1z"/><path d="m44 30h-10c-.553 0-1 .447-1 1s.447 1 1 1h10c.553 0 1-.447 1-1s-.447-1-1-1z"/><path d="m31 34c0-.553-.447-1-1-1h-10c-.553 0-1 .447-1 1s.447 1 1 1h10c.553 0 1-.447 1-1z"/><path d="m44 33h-10c-.553 0-1 .447-1 1s.447 1 1 1h10c.553 0 1-.447 1-1s-.447-1-1-1z"/><path d="m32 16.001c-1.871 0-3.629.729-4.949 2.05-.391.391-.391 1.023 0 1.414s1.023.391 1.414 0c.943-.943 2.199-1.464 3.535-1.464s2.592.521 3.535 1.464c.195.195.451.293.707.293s.512-.098.707-.293c.391-.391.391-1.023 0-1.414-1.32-1.322-3.078-2.05-4.949-2.05z"/><path d="m41 46.946v-7.5c0-.003 0-.007 0-.01v-.436c0-.553-.447-1-1-1h-16c-.553 0-1 .447-1 1v.425.029 10.546c0 1.686.474 3.258 1.283 4.607.001.003.004.006.005.009 1.203 2.002 3.158 3.495 5.476 4.091.01.004.02.004.029.008.708.18 1.444.285 2.207.285.734 0 1.445-.099 2.13-.266.042-.012.084-.015.124-.031 2.31-.6 4.258-2.09 5.458-4.087.001-.003.004-.006.005-.009.809-1.349 1.283-2.921 1.283-4.607v-3.034c0-.007 0-.013 0-.02zm-4.756-5.162-1.784-1.784h3.568zm2.756.072v2.684l-1.342-1.342zm-4.17 1.342-2.83 2.83-2.829-2.829 2.83-2.83zm-7.073-1.413-1.785-1.785h3.57zm-1.414 1.414-1.343 1.344v-2.687zm-1.324 7.159 1.325 1.325-.858.859c-.268-.683-.428-1.417-.467-2.184zm-.019-2.846v-.141l2.757-2.758 2.829 2.829-2.828 2.827zm7 1.344 2.828 2.828-2.828 2.828-2.828-2.828zm1.414-1.414 2.83-2.83 2.756 2.756v.145l-2.758 2.758zm5.567 2.917c-.039.767-.199 1.501-.467 2.184l-.858-.858zm-12.463 3.98 1.24-1.241 2.828 2.828-.733.734c-1.331-.431-2.485-1.249-3.335-2.321zm7.629 2.32-.733-.733 2.828-2.827 1.24 1.24c-.85 1.072-2.004 1.89-3.335 2.32z"/></svg>