<?xml version="1.0" encoding="iso-8859-1"?>
<!-- Generator: Adobe Illustrator 19.0.0, SVG Export Plug-In . SVG Version: 6.00 Build 0)  -->
<svg version="1.1" id="Capa_1" xmlns="http://www.w3.org/2000/svg" xmlns:xlink="http://www.w3.org/1999/xlink" x="0px" y="0px"
	 viewBox="0 0 512 512" style="enable-background:new 0 0 512 512;" xml:space="preserve">
<g>
	<g>
		<path d="M435.2,51.2H76.8c-4.71,0-8.533,3.814-8.533,8.533v392.533c0,4.719,3.823,8.533,8.533,8.533h358.4
			c4.71,0,8.533-3.814,8.533-8.533V59.733C443.733,55.014,439.91,51.2,435.2,51.2z M426.667,443.733H85.333V68.267h341.333V443.733z
			"/>
	</g>
</g>
<g>
	<g>
		<path d="M179.2,290.133c-28.237,0-51.2,22.963-51.2,51.2c0,28.237,22.963,51.2,51.2,51.2s51.2-22.963,51.2-51.2
			C230.4,313.097,207.437,290.133,179.2,290.133z M179.2,375.467c-18.825,0-34.133-15.309-34.133-34.133
			c0-18.825,15.309-34.133,34.133-34.133s34.133,15.309,34.133,34.133C213.333,360.158,198.025,375.467,179.2,375.467z"/>
	</g>
</g>
<g>
	<g>
		<path d="M332.8,256c-28.237,0-51.2,22.963-51.2,51.2c0,28.237,22.963,51.2,51.2,51.2c28.237,0,51.2-22.963,51.2-51.2
			C384,278.963,361.037,256,332.8,256z M332.8,341.333c-18.825,0-34.133-15.309-34.133-34.133s15.309-34.133,34.133-34.133
			c18.825,0,34.133,15.309,34.133,34.133C366.933,326.025,351.625,341.333,332.8,341.333z"/>
	</g>
</g>
<g>
	<g>
		<path d="M221.867,204.8c-4.71,0-8.533,3.814-8.533,8.533v128c0,4.719,3.823,8.533,8.533,8.533c4.71,0,8.533-3.814,8.533-8.533
			v-128C230.4,208.614,226.577,204.8,221.867,204.8z"/>
	</g>
</g>
<g>
	<g>
		<path d="M375.467,170.667c-4.71,0-8.533,3.814-8.533,8.533v128c0,4.719,3.823,8.533,8.533,8.533S384,311.919,384,307.2v-128
			C384,174.481,380.177,170.667,375.467,170.667z"/>
	</g>
</g>
<g>
	<g>
		<path d="M380.8,121.335c-2.014-1.613-4.659-2.219-7.185-1.673l-153.6,34.133c-3.9,0.879-6.682,4.335-6.682,8.337v51.2
			c0,2.594,1.178,5.035,3.2,6.656c1.519,1.229,3.405,1.877,5.333,1.877c0.614,0,1.237-0.068,1.852-0.196l153.6-34.133
			c3.9-0.879,6.682-4.335,6.682-8.337V128C384,125.406,382.822,122.965,380.8,121.335z M366.933,172.356L230.4,202.692v-33.715
			l136.533-30.336V172.356z"/>
	</g>
</g>
<g>
	<g>
		<path d="M503.467,93.867h-34.133c-4.71,0-8.533,3.814-8.533,8.533v307.2c0,4.719,3.823,8.533,8.533,8.533h34.133
			c4.71,0,8.533-3.814,8.533-8.533V102.4C512,97.681,508.177,93.867,503.467,93.867z M494.933,401.067h-17.067V110.933h17.067
			V401.067z"/>
	</g>
</g>
<g>
	<g>
		<path d="M469.333,76.8H435.2c-4.71,0-8.533,3.814-8.533,8.533v341.333c0,4.719,3.823,8.533,8.533,8.533h34.133
			c4.71,0,8.533-3.814,8.533-8.533V85.333C477.867,80.614,474.044,76.8,469.333,76.8z M460.8,418.133h-17.067V93.867H460.8V418.133z
			"/>
	</g>
</g>
<g>
	<g>
		<path d="M42.667,93.867H8.533C3.823,93.867,0,97.681,0,102.4v307.2c0,4.719,3.823,8.533,8.533,8.533h34.133
			c4.71,0,8.533-3.814,8.533-8.533V102.4C51.2,97.681,47.377,93.867,42.667,93.867z M34.133,401.067H17.067V110.933h17.067V401.067z
			"/>
	</g>
</g>
<g>
	<g>
		<path d="M76.8,76.8H42.667c-4.71,0-8.533,3.814-8.533,8.533v341.333c0,4.719,3.823,8.533,8.533,8.533H76.8
			c4.71,0,8.533-3.814,8.533-8.533V85.333C85.333,80.614,81.51,76.8,76.8,76.8z M68.267,418.133H51.2V93.867h17.067V418.133z"/>
	</g>
</g>
<g>
</g>
<g>
</g>
<g>
</g>
<g>
</g>
<g>
</g>
<g>
</g>
<g>
</g>
<g>
</g>
<g>
</g>
<g>
</g>
<g>
</g>
<g>
</g>
<g>
</g>
<g>
</g>
<g>
</g>
</svg>
